<svg width="25" height="25" viewBox="0 0 25 25" fill="none" xmlns="http://www.w3.org/2000/svg">
<mask id="mask0_1_44" style="mask-type:alpha" maskUnits="userSpaceOnUse" x="0" y="0" width="25" height="25">
<rect x="0.601074" y="0.711437" width="24" height="24" fill="#D9D9D9"/>
</mask>
<g mask="url(#mask0_1_44)">
<path d="M5.60107 21.7114C5.05107 21.7114 4.58007 21.5158 4.18807 21.1244C3.79674 20.7324 3.60107 20.2614 3.60107 19.7114V5.71144C3.60107 5.16144 3.79674 4.69044 4.18807 4.29844C4.58007 3.9071 5.05107 3.71144 5.60107 3.71144H10.6011V5.71144H5.60107V19.7114H19.6011V14.3614L21.6011 16.3614V19.7114C21.6011 20.2614 21.4054 20.7324 21.0141 21.1244C20.6221 21.5158 20.1511 21.7114 19.6011 21.7114H5.60107ZM6.60107 17.7114L9.60107 13.7114L11.8511 16.7114L14.8511 12.7114L18.6011 17.7114H6.60107ZM22.1511 14.1114L19.0511 11.0114C18.7011 11.2448 18.3261 11.4198 17.9261 11.5364C17.5261 11.6531 17.1011 11.7114 16.6511 11.7114C15.4177 11.7114 14.3677 11.2741 13.5011 10.3994C12.6344 9.5241 12.2011 8.46144 12.2011 7.21144C12.2011 5.96144 12.6387 4.89877 13.5141 4.02344C14.3887 3.14877 15.4511 2.71144 16.7011 2.71144C17.9511 2.71144 19.0137 3.14877 19.8891 4.02344C20.7637 4.89877 21.2011 5.96144 21.2011 7.21144C21.2011 7.66144 21.1344 8.09477 21.0011 8.51144C20.8677 8.9281 20.7011 9.31144 20.5011 9.66144L23.5511 12.7114L22.1511 14.1114ZM16.7011 9.71144C17.4011 9.71144 17.9927 9.46977 18.4761 8.98644C18.9594 8.5031 19.2011 7.91144 19.2011 7.21144C19.2011 6.51144 18.9594 5.91977 18.4761 5.43644C17.9927 4.9531 17.4011 4.71144 16.7011 4.71144C16.0011 4.71144 15.4094 4.9531 14.9261 5.43644C14.4427 5.91977 14.2011 6.51144 14.2011 7.21144C14.2011 7.91144 14.4427 8.5031 14.9261 8.98644C15.4094 9.46977 16.0011 9.71144 16.7011 9.71144Z" fill="#FEFEFF"/>
</g>
</svg>
