<svg width="20" height="22" viewBox="0 0 20 22" fill="none" xmlns="http://www.w3.org/2000/svg">
<path fill-rule="evenodd" clip-rule="evenodd" d="M7.64958 0.0622749C7.67527 0.0708329 7.71178 0.0831531 7.75838 0.0992764C7.85156 0.131517 7.9852 0.179 8.15353 0.242056C8.49001 0.368101 8.96614 0.556761 9.53553 0.810766C10.6715 1.31751 12.193 2.09072 13.7215 3.15504C16.745 5.26051 20 8.6569 20 13.5393C20 15.6738 19.4305 17.7869 18.1046 19.3856C16.7552 21.0126 14.7095 22 12 22C11.9352 22 11.6752 21.9978 11.4169 21.8125C11.0566 21.5541 10.9699 21.154 11.0085 20.8667C11.0376 20.6501 11.1305 20.5025 11.1576 20.4602C11.1966 20.3993 11.234 20.3556 11.2534 20.3338C11.293 20.2893 11.3281 20.2581 11.3407 20.247C11.3575 20.2322 11.3716 20.2207 11.3801 20.214C11.4065 20.1929 11.4323 20.1745 11.4402 20.1689L11.4413 20.1681L11.5185 20.1136C11.5762 20.0727 11.6587 20.013 11.7588 19.9347C11.9606 19.7768 12.2297 19.546 12.4969 19.2526C13.0448 18.6509 13.5 17.8819 13.5 17C13.5 15.3681 12.571 13.8515 11.5067 12.669C10.9869 12.0914 10.4644 11.6266 10.0715 11.3065C10.0471 11.2866 10.0233 11.2674 10 11.2487C9.97673 11.2674 9.9529 11.2866 9.92855 11.3065C9.53562 11.6266 9.01307 12.0914 8.49329 12.669C7.42904 13.8515 6.5 15.3681 6.5 17C6.5 17.8887 6.95405 18.6581 7.49825 19.2564C7.76406 19.5486 8.03189 19.7778 8.23273 19.934C8.33231 20.0114 8.41417 20.0699 8.46996 20.1087C8.49336 20.125 8.51155 20.1374 8.52815 20.1487L8.54014 20.1569C8.54704 20.1616 8.56336 20.1727 8.57866 20.1837C8.58323 20.1869 8.61388 20.2088 8.6476 20.2376C8.65834 20.2467 8.67722 20.2631 8.69949 20.285C8.71537 20.3005 8.76466 20.3492 8.81574 20.4212C8.84235 20.4607 8.90103 20.5658 8.93024 20.6325C8.96679 20.7437 8.99914 21.045 8.9733 21.2301C8.89002 21.4561 8.60271 21.798 8.42411 21.9056C8.29787 21.9546 8.08339 21.9965 8 22C5.29045 22 3.24478 21.0126 1.89543 19.3856C0.569527 17.7869 0 15.6737 0 13.5393C0 10.9892 0.883571 9.3815 2.05286 8.15505C2.5965 7.58485 3.19715 7.10222 3.73579 6.66943C3.75008 6.65795 3.76432 6.6465 3.77852 6.63509C4.34602 6.17901 4.84273 5.77589 5.26778 5.31892C6.30821 4.20036 6.54446 3.18715 6.56055 2.49801C6.56885 2.14243 6.51857 1.85415 6.46943 1.66212C6.44495 1.56642 6.42112 1.49607 6.40592 1.45501C6.39834 1.43454 6.39298 1.42157 6.39089 1.41661C6.22725 1.05871 6.28834 0.636687 6.54841 0.340355C6.82218 0.0284214 7.26272 -0.0654909 7.64958 0.0622749ZM10.622 9.214C10.6607 9.24099 10.7152 9.27952 10.7831 9.32908C10.9187 9.42814 11.1087 9.57173 11.3348 9.756C11.7856 10.1233 12.3881 10.6586 12.9933 11.331C14.179 12.6485 15.5 14.6319 15.5 17C15.5 17.9472 15.2103 18.7677 14.8256 19.4413C15.5441 19.1103 16.1163 18.65 16.5651 18.1089C17.516 16.9623 18 15.3451 18 13.5393C18 9.63779 15.405 6.76451 12.5785 4.79631C11.182 3.82379 9.77854 3.10916 8.72072 2.63727C8.66599 2.61285 8.61222 2.5891 8.55946 2.56601C8.52785 3.72134 8.1107 5.19906 6.73222 6.68106C6.19401 7.25969 5.58503 7.7491 5.03517 8.191L5.0314 8.19404C4.46252 8.65123 3.95122 9.06228 3.5004 9.53514C2.65194 10.4251 2 11.5501 2 13.5393C2 15.3451 2.48402 16.9623 3.43489 18.1089C3.88233 18.6484 4.4524 19.1075 5.16781 19.4382C4.78613 18.7652 4.5 17.9462 4.5 17C4.5 14.6319 5.82096 12.6485 7.00671 11.331C7.61193 10.6586 8.21438 10.1233 8.6652 9.756C8.89135 9.57173 9.08128 9.42814 9.21695 9.32908C9.28483 9.27952 9.33927 9.24099 9.37804 9.214C9.74809 8.95634 10.2491 8.9544 10.622 9.214Z" fill="black"/>
</svg>
