<svg width="22" height="18" viewBox="0 0 22 18" fill="none" xmlns="http://www.w3.org/2000/svg">
<path fill-rule="evenodd" clip-rule="evenodd" d="M22 3V15C22 16.6523 20.6523 18 19 18H3C1.34772 18 0 16.6523 0 15V3C0 1.34315 1.34315 0 3 0H19C20.6569 0 22 1.34315 22 3ZM2.10658 2.55395C2.27196 2.22692 2.61204 2 3 2H19C19.388 2 19.728 2.22692 19.8934 2.55395L11 8.77934L2.10658 2.55395ZM2 4.92066L9.85308 10.4178C10.5417 10.8999 11.4583 10.8999 12.1469 10.4178L20 4.92066V15C20 15.5477 19.5477 16 19 16H3C2.45228 16 2 15.5477 2 15V4.92066Z" fill="black"/>
</svg>
