<svg width="20" height="21" viewBox="0 0 20 21" fill="none" xmlns="http://www.w3.org/2000/svg">
<path fill-rule="evenodd" clip-rule="evenodd" d="M10.6139 0.210648C10.2528 -0.0702159 9.74717 -0.0702159 9.38606 0.210648L0.386059 7.21065C0.142473 7.4001 0 7.69141 0 8V19C0 20.1046 0.895432 21 2 21H18C19.1046 21 20 20.1046 20 19V8C20 7.69141 19.8575 7.4001 19.6139 7.21065L10.6139 0.210648ZM14 19H18V8.48908L10 2.26686L2 8.48908V19H6V11C6 10.4477 6.44772 10 7 10H13C13.5523 10 14 10.4477 14 11V19ZM8 19V12H12V19H8Z" fill="black"/>
</svg>
