<svg width="24" height="20" viewBox="0 0 24 20" fill="none" xmlns="http://www.w3.org/2000/svg">
<path d="M4 0C4.55228 0 5 0.447715 5 1V8C5 8.55228 4.55228 9 4 9C3.44772 9 3 8.55228 3 8V1C3 0.447715 3.44772 0 4 0Z" fill="black"/>
<path d="M5 13H7C7.55228 13 8 12.5523 8 12C8 11.4477 7.55228 11 7 11H1C0.447715 11 0 11.4477 0 12C0 12.5523 0.447715 13 1 13H3V19C3 19.5523 3.44772 20 4 20C4.55228 20 5 19.5523 5 19V13Z" fill="black"/>
<path d="M13 10C13 9.44771 12.5523 9 12 9C11.4477 9 11 9.44771 11 10V19C11 19.5523 11.4477 20 12 20C12.5523 20 13 19.5523 13 19V10Z" fill="black"/>
<path d="M12 0C12.5523 0 13 0.447715 13 1V5H15C15.5523 5 16 5.44772 16 6C16 6.55228 15.5523 7 15 7H9C8.44771 7 8 6.55228 8 6C8 5.44772 8.44771 5 9 5H11V1C11 0.447715 11.4477 0 12 0Z" fill="black"/>
<path d="M21 13H23C23.5523 13 24 12.5523 24 12C24 11.4477 23.5523 11 23 11H17C16.4477 11 16 11.4477 16 12C16 12.5523 16.4477 13 17 13H19V19C19 19.5523 19.4477 20 20 20C20.5523 20 21 19.5523 21 19V13Z" fill="black"/>
<path d="M20 0C19.4477 0 19 0.447715 19 1V8C19 8.55228 19.4477 9 20 9C20.5523 9 21 8.55228 21 8V1C21 0.447715 20.5523 0 20 0Z" fill="black"/>
</svg>
