<svg width="24" height="25" viewBox="0 0 24 25" fill="none" xmlns="http://www.w3.org/2000/svg">
<mask id="mask0_101_8" style="mask-type:alpha" maskUnits="userSpaceOnUse" x="0" y="0" width="24" height="25">
<rect y="0.5" width="24" height="24" fill="#D9D9D9"/>
</mask>
<g mask="url(#mask0_101_8)">
<path d="M18 20.5L16.6 19.1L18.175 17.5H14V15.5H18.175L16.6 13.9L18 12.5L22 16.5L18 20.5ZM4 17.5C3.45 17.5 2.97933 17.3043 2.588 16.913C2.196 16.521 2 16.05 2 15.5V5.5C2 4.95 2.196 4.479 2.588 4.087C2.97933 3.69567 3.45 3.5 4 3.5H17C17.55 3.5 18.021 3.69567 18.413 4.087C18.8043 4.479 19 4.95 19 5.5V10.6C18.8333 10.5667 18.6667 10.5417 18.5 10.525C18.3333 10.5083 18.1667 10.5 18 10.5C17.8333 10.5 17.6667 10.504 17.5 10.512C17.3333 10.5207 17.1667 10.5417 17 10.575V6.9L10.4 11.5L4 6.925V15.5H12.075C12.0417 15.6667 12.0207 15.8333 12.012 16C12.004 16.1667 12 16.3333 12 16.5C12 16.6667 12.0083 16.8333 12.025 17C12.0417 17.1667 12.0667 17.3333 12.1 17.5H4ZM5.45 5.5L10.4 9.05L15.5 5.5H5.45Z" fill="#2FBF71"/>
</g>
</svg>
