<svg width="24" height="24" viewBox="0 0 24 24" fill="none" xmlns="http://www.w3.org/2000/svg">
<mask id="mask0_102_14" style="mask-type:alpha" maskUnits="userSpaceOnUse" x="0" y="0" width="24" height="24">
<rect width="24" height="24" fill="#D9D9D9"/>
</mask>
<g mask="url(#mask0_102_14)">
<path d="M18.35 14.85L16.9 13.4C17.1 13.2167 17.2543 13.004 17.363 12.762C17.471 12.5207 17.525 12.2667 17.525 12C17.525 11.7333 17.471 11.4793 17.363 11.238C17.2543 10.996 17.1 10.7833 16.9 10.6L18.35 9.15C18.7333 9.53333 19.025 9.97067 19.225 10.462C19.425 10.954 19.525 11.4667 19.525 12C19.525 12.5333 19.425 13.0457 19.225 13.537C19.025 14.029 18.7333 14.4667 18.35 14.85ZM20.8 17.3L19.4 15.9C19.9167 15.3833 20.3167 14.7917 20.6 14.125C20.8833 13.4583 21.025 12.75 21.025 12C21.025 11.25 20.8833 10.5417 20.6 9.875C20.3167 9.20833 19.9167 8.61667 19.4 8.1L20.8 6.7C21.5167 7.4 22.0667 8.20833 22.45 9.125C22.8333 10.0417 23.025 11 23.025 12C23.025 13 22.8333 13.9583 22.45 14.875C22.0667 15.7917 21.5167 16.6 20.8 17.3ZM7 23C6.45 23 5.97933 22.8043 5.588 22.413C5.196 22.021 5 21.55 5 21V3C5 2.45 5.196 1.979 5.588 1.587C5.97933 1.19567 6.45 1 7 1H17C17.55 1 18.021 1.19567 18.413 1.587C18.8043 1.979 19 2.45 19 3V7H17V6H7V18H17V17H19V21C19 21.55 18.8043 22.021 18.413 22.413C18.021 22.8043 17.55 23 17 23H7ZM7 20V21H17V20H7ZM7 4H17V3H7V4Z" fill="#2FBF71"/>
</g>
</svg>
