<svg width="256" height="60" viewBox="0 0 256 60" fill="none" xmlns="http://www.w3.org/2000/svg">
<path d="M54.0312 45V15.9091H74.9972V22.2727H61.929V27.2727H73.9176V33.6364H61.929V38.6364H74.9403V45H54.0312ZM78.1186 22.2727V15.9091H103.403V22.2727H94.6527V45H86.8686V22.2727H78.1186ZM110.26 45H101.737L111.339 15.9091H122.135L131.737 45H123.214L116.851 23.9205H116.624L110.26 45ZM108.669 33.5227H124.692V39.4318H108.669V33.5227Z" fill="#6CA09F"/>
<path d="M134.539 45V15.9091H154.994V22.2727H142.437V27.2727H153.744V33.6364H142.437V45H134.539ZM186.08 30.4545C186.08 33.6932 185.451 36.4252 184.191 38.6506C182.932 40.8665 181.232 42.5473 179.092 43.6932C176.951 44.8295 174.565 45.3977 171.933 45.3977C169.281 45.3977 166.885 44.8248 164.745 43.679C162.614 42.5237 160.919 40.8381 159.66 38.6222C158.41 36.3968 157.785 33.6742 157.785 30.4545C157.785 27.2159 158.41 24.4886 159.66 22.2727C160.919 20.0473 162.614 18.3665 164.745 17.2301C166.885 16.0843 169.281 15.5114 171.933 15.5114C174.565 15.5114 176.951 16.0843 179.092 17.2301C181.232 18.3665 182.932 20.0473 184.191 22.2727C185.451 24.4886 186.08 27.2159 186.08 30.4545ZM177.955 30.4545C177.955 28.7121 177.723 27.2443 177.259 26.0511C176.805 24.8485 176.128 23.9394 175.228 23.3239C174.338 22.6989 173.239 22.3864 171.933 22.3864C170.626 22.3864 169.522 22.6989 168.623 23.3239C167.733 23.9394 167.056 24.8485 166.592 26.0511C166.137 27.2443 165.91 28.7121 165.91 30.4545C165.91 32.197 166.137 33.6695 166.592 34.8722C167.056 36.0653 167.733 36.9744 168.623 37.5994C169.522 38.215 170.626 38.5227 171.933 38.5227C173.239 38.5227 174.338 38.215 175.228 37.5994C176.128 36.9744 176.805 36.0653 177.259 34.8722C177.723 33.6695 177.955 32.197 177.955 30.4545ZM189.734 45V15.9091H202.291C204.45 15.9091 206.339 16.3021 207.959 17.0881C209.578 17.8741 210.838 19.0057 211.737 20.483C212.637 21.9602 213.087 23.7311 213.087 25.7955C213.087 27.8788 212.623 29.6354 211.695 31.0653C210.776 32.4953 209.483 33.5748 207.817 34.304C206.16 35.0331 204.223 35.3977 202.007 35.3977H194.507V29.2614H200.416C201.344 29.2614 202.135 29.1477 202.788 28.9205C203.451 28.6837 203.958 28.3097 204.308 27.7983C204.668 27.2869 204.848 26.6193 204.848 25.7955C204.848 24.9621 204.668 24.285 204.308 23.7642C203.958 23.2339 203.451 22.8456 202.788 22.5994C202.135 22.3437 201.344 22.2159 200.416 22.2159H197.632V45H189.734ZM206.78 31.6477L214.053 45H205.473L198.371 31.6477H206.78ZM216.453 15.9091H226.283L233.044 32.3864H233.385L240.146 15.9091H249.976V45H242.249V28.1818H242.021L235.544 44.7727H230.885L224.408 28.0682H224.18V45H216.453V15.9091Z" fill="#C4C4C4"/>
<path d="M0 16.1494L24.7701 29.7053V39.0767L7.87356 29.8822V50.1572L0 45.56V16.1494Z" fill="#6CA09F"/>
<path d="M50 16.1494L25.4023 29.7053V39.0767L42.2989 29.8822L42.4138 50.1572L50 45.56V16.1494Z" fill="#6CA09F"/>
<path d="M25.1149 0L50 14.9705L41.7241 19.5678L25.1149 9.78389L8.3908 19.5678L0 14.9705L25.1149 0Z" fill="#C4C4C4"/>
<path d="M41.7241 41.611L25.5172 51.2679L25.5172 60L41.7241 50.334L41.7241 41.611Z" fill="#C4C4C4"/>
<path d="M8.39087 41.611L24.7127 51.277L24.7127 60L8.39087 50.4519L8.39087 41.611Z" fill="#C4C4C4"/>
</svg>
